<svg width="24" height="25" viewBox="0 0 24 25" fill="none" xmlns="http://www.w3.org/2000/svg">
<path d="M23.7665 9.91931H22.7999V9.86951H12V14.6695H18.7818C17.7924 17.4637 15.1338 19.4695 12 19.4695C8.02378 19.4695 4.79999 16.2457 4.79999 12.2695C4.79999 8.29331 8.02378 5.06952 12 5.06952C13.8354 5.06952 15.5052 5.76192 16.7766 6.89292L20.1708 3.49872C18.0276 1.50133 15.1608 0.269531 12 0.269531C5.37299 0.269531 0 5.64252 0 12.2695C0 18.8965 5.37299 24.2695 12 24.2695C18.627 24.2695 23.9999 18.8965 23.9999 12.2695C23.9999 11.4649 23.9171 10.6795 23.7665 9.91931Z" fill="#FFC107"/>
<path d="M1.38375 6.68412L5.32634 9.57551C6.39314 6.93432 8.97658 5.06952 12 5.06952C13.8354 5.06952 15.5052 5.76192 16.7766 6.89292L20.1708 3.49872C18.0276 1.50133 15.1608 0.269531 12 0.269531C7.39078 0.269531 3.39374 2.87172 1.38375 6.68412Z" fill="#FF3D00"/>
<path d="M12.0005 24.2707C15.1001 24.2707 17.9165 23.0845 20.0459 21.1555L16.3319 18.0127C15.0866 18.9597 13.5649 19.472 12.0005 19.4707C8.87929 19.4707 6.22909 17.4805 5.2307 14.7031L1.3175 17.7181C3.3035 21.6043 7.33669 24.2707 12.0005 24.2707Z" fill="#4CAF50"/>
<path d="M23.7666 9.92106H22.8V9.87126H12V14.6712H18.7818C18.3085 16.0011 17.456 17.1631 16.3296 18.0138L16.3319 18.0127L20.0459 21.1555C19.7831 21.3943 24 18.2712 24 12.2713C24 11.4667 23.9172 10.6813 23.7666 9.92106Z" fill="#0A6DF0"/>
</svg>
